<svg xmlns="http://www.w3.org/2000/svg" version="1.0" width="2096.000000pt" height="1560.000000pt" viewBox="0 0 2096.000000 1560.000000" preserveAspectRatio="xMidYMid meet">

<g transform="translate(0.000000,1560.000000) scale(0.100000,-0.100000)" fill="#e8e7e7" stroke="none">
<path d="M0 7800 l0 -7800 10480 0 10480 0 0 7800 0 7800 -10480 0 -10480 0 0 -7800z m12344 6277 l519 -395 -2 -5514 c-2 -4235 -5 -5516 -14 -5524 -12 -12 -443 -263 -762 -444 -239 -136 -415 -225 -425 -214 -9 10 -213 652 -814 2559 -107 341 -249 791 -315 1000 -65 209 -335 1071 -599 1915 -265 844 -518 1654 -564 1800 l-83 264 -7 -2769 c-9 -3002 -19 -4750 -30 -4760 -9 -9 -476 279 -963 593 -271 175 -253 162 -265 202 -24 80 -29 1044 -30 5837 l0 5032 232 178 c330 252 812 613 819 613 16 0 336 -1000 1114 -3485 141 -451 312 -995 380 -1210 67 -214 207 -658 309 -985 425 -1350 582 -1848 660 -2080 l81 -245 6 575 c4 316 5 1887 2 3490 -4 2661 3 4070 21 4099 9 14 108 -58 730 -532z m2566 -1457 c245 -190 636 -493 870 -674 234 -181 479 -372 545 -423 66 -51 210 -163 320 -248 110 -85 349 -268 532 -407 l332 -253 1 -2291 0 -2291 -22 -20 c-13 -11 -320 -247 -683 -524 -363 -276 -867 -661 -1120 -854 -709 -541 -1814 -1378 -1893 -1434 -24 -16 -37 -20 -44 -13 -20 20 -27 596 -27 2275 l-1 1667 680 0 680 0 0 -388 c0 -453 9 -722 23 -722 18 0 190 134 770 595 l327 260 0 1456 0 1456 -332 268 c-183 148 -591 478 -905 734 l-573 465 0 884 0 884 38 -30 c20 -16 237 -183 482 -372z m-7787 68 c4 -166 7 -1448 7 -2850 l0 -2548 -1280 0 -1280 0 -1 -847 c-1 -467 -5 -999 -8 -1183 l-6 -336 -615 387 -615 387 -3 2189 -2 2190 981 759 c2019 1563 2790 2154 2809 2154 4 0 10 -136 13 -302z" fill="#e8e7e7"/>
<path d="M5479 10143 c-212 -164 -503 -388 -647 -498 l-262 -200 2 -370 3 -370 580 1 c531 2 693 8 714 29 10 10 12 790 4 1263 l-8 443 -386 -298z" fill="#e8e7e7"/>
</g>
</svg>